<?xml version="1.0" encoding="UTF-8"?>
<svg id="Camada_2" data-name="Camada 2" xmlns="http://www.w3.org/2000/svg" viewBox="0 0 1543.71 170.44">
  <defs>
    <style>
      .cls-1 {
        fill: #8b5cf6;
      }
    </style>
  </defs>
  <g id="Camada_1-2" data-name="Camada 1">
    <path class="cls-1" d="M34.08,170.44v-34.08h102.27v-34.08h-68.19v-34.1h102.27v102.27H34.08ZM0,136.35V34.08h34.08v102.27H0ZM34.08,34.08V0h136.35v34.08H34.08Z"/>
    <path class="cls-1" d="M333.58,136.35v34.08h-102.27v-34.08h102.27ZM197.22,136.35V0h34.08v136.35h-34.08ZM333.58,136.35V0h34.08v136.35h-34.08Z"/>
    <path class="cls-1" d="M394.45,170.44V0h170.44v34.08h-136.35v34.08h102.27v34.1h-102.27v34.08h136.35v34.08h-170.44Z"/>
    <path class="cls-1" d="M591.67,170.44V0h136.35v34.08h-102.27v102.27h102.27v34.08h-136.35ZM728.03,136.35V34.08h34.08v102.27h-34.08Z"/>
    <path class="cls-1" d="M788.9,170.44V0h170.44v34.08h-136.35v34.08h102.27v34.1h-102.27v34.08h136.35v34.08h-170.44Z"/>
    <path class="cls-1" d="M1020.2,34.08v34.08h-34.08v-34.08h34.08ZM986.12,170.44v-34.08h136.35v34.08h-136.35ZM1020.2,102.27v-34.1h102.27v34.1h-102.27ZM1020.2,34.08V0h136.35v34.08h-136.35ZM1122.47,136.35v-34.08h34.08v34.08h-34.08Z"/>
    <path class="cls-1" d="M1183.34,170.44v-34.08h34.08v34.08h-34.08Z"/>
    <path class="cls-1" d="M1244.21,170.44V34.08h34.08v68.19h102.27V34.08h34.08v136.35h-34.08v-34.08h-102.27v34.08h-34.08ZM1278.3,34.08V0h102.27v34.08h-102.27Z"/>
    <path class="cls-1" d="M1441.44,170.44v-34.08h34.08V34.08h-34.08V0h102.27v34.08h-34.1v102.27h34.1v34.08h-102.27Z"/>
  </g>
</svg>